# xmcd
#
# Track frame offsets:
#	150
#	21250
#	26769
#	41700
#	62635
#	78239
#	97852
#	109808
#	128353
#	141525
#	169731
#	192818
#	224863
#	234859
#	249438
#	271141
#	287176
#
# Disc length: 3962 seconds
#
# Revision: 0
# Processed by: cddbd v1.5.1PL0 Copyright (c) Steve Scherf et al.
# Submitted via: dBpowerAMP V4.0
#
DISCID=ef0f7811
DTITLE=聖經-舊約 - Disc 48
DYEAR=1900
DGENRE=
TTITLE0=以寶亞書第19章
TTITLE1=以寶亞書第20章
TTITLE2=以寶亞書第21章
TTITLE3=以寶亞書第22章
TTITLE4=以寶亞書第23章
TTITLE5=以寶亞書第24章
TTITLE6=以寶亞書第25章
TTITLE7=以寶亞書第26章
TTITLE8=以寶亞書第27章
TTITLE9=以寶亞書第28章
TTITLE10=以寶亞書第29章
TTITLE11=以寶亞書第30章
TTITLE12=以寶亞書第31章
TTITLE13=以寶亞書第32章
TTITLE14=以寶亞書第33章
TTITLE15=以寶亞書第34章
TTITLE16=以寶亞書第35章
EXTD=
EXTT0=
EXTT1=
EXTT2=
EXTT3=
EXTT4=
EXTT5=
EXTT6=
EXTT7=
EXTT8=
EXTT9=
EXTT10=
EXTT11=
EXTT12=
EXTT13=
EXTT14=
EXTT15=
EXTT16=
PLAYORDER=
